<svg width="612" height="219" style="display: block; font-size: 14px; font-family: Arial, sans-serif; dominant-baseline: central; text-anchor: middle; cursor: default; user-select: none;"><line x1="67.8286" y1="37" x2="67.8286" y2="89" stroke="#767676" stroke-width="1" stroke-dasharray="3,3"></line><line x1="114.3086" y1="37" x2="114.3086" y2="141" stroke="#767676" stroke-width="1" stroke-dasharray="3,3"></line><line x1="160.7886" y1="37" x2="160.7886" y2="193" stroke="#767676" stroke-width="1" stroke-dasharray="3,3"></line><g transform="translate(0, 11)"><g transform="translate(21, 0)"><line x1="0" y1="26" x2="581" y2="26" stroke-width="2" stroke="rgba(0, 0, 0, 0.2)" style="shape-rendering: crispedges;"></line><line x1="0" y1="26" x2="140.4858" y2="26" stroke-width="2" stroke="#000000" style="shape-rendering: crispedges;"></line><path transform="translate(581, 21)" d="M0 0 L10 5 L0 10 z" fill="rgba(0, 0, 0, 0.2)" style="transition: fill 0.2s ease-in-out 0s;"></path><line x1="140.48579999999998" y1="3.5" x2="140.48579999999998" y2="48.5" stroke-width="2" stroke="#000000" style="opacity: 1; transition: opacity 0.5s ease-in-out 0s;"></line><g><g style="transform: translate(46.8286px, 26px) scale(1); transition: transform 0.5s ease-in-out 0s;"><circle cx="0" cy="0" r="15" stroke-width="0" stroke="#000000" fill="#767676"></circle></g><g style="transform: translate(93.3086px, 26px) scale(1); transition: transform 0.5s ease-in-out 0s;"><circle cx="0" cy="0" r="15" stroke-width="0" stroke="#000000" fill="#767676"></circle></g><g style="transform: translate(139.789px, 26px) scale(1); transition: transform 0.5s ease-in-out 0s;"><circle cx="0" cy="0" r="15" stroke-width="0" stroke="#000000" fill="#767676"></circle></g></g></g></g><g transform="translate(0, 63)"><g transform="translate(21, 0)"><line x1="46.8286" y1="26" x2="581" y2="26" stroke-width="2" stroke="rgba(118, 118, 118, 0.2)" style="shape-rendering: crispedges;"></line><line x1="46.8286" y1="26" x2="142.1126" y2="26" stroke-width="2" stroke="#767676" style="shape-rendering: crispedges;"></line><path transform="translate(581, 21)" d="M0 0 L10 5 L0 10 z" fill="rgba(118, 118, 118, 0.2)" style="transition: fill 0.2s ease-in-out 0s;"></path><line x1="142.11260000000001" y1="3.5" x2="142.11260000000001" y2="48.5" stroke-width="2" stroke="#767676" style="opacity: 1; transition: opacity 0.5s ease-in-out 0s;"></line><g><g style="transform: translate(95.1678px, 26px) scale(1); transition: transform 0.5s ease-in-out 0s;"><circle cx="0" cy="0" r="15" stroke-width="2" stroke="#767676" fill="#ffffff"></circle><text x="0" y="0" style="fill: rgb(118, 118, 118); dominant-baseline: central;">0:0</text></g><g style="transform: translate(141.88px, 26px) scale(1); transition: transform 0.5s ease-in-out 0s;"><circle cx="0" cy="0" r="15" stroke-width="2" stroke="#767676" fill="#ffffff"></circle><text x="0" y="0" style="fill: rgb(118, 118, 118); dominant-baseline: central;">0:1</text></g></g></g></g><g transform="translate(0, 115)"><g transform="translate(21, 0)"><line x1="93.3086" y1="26" x2="581" y2="26" stroke-width="2" stroke="rgba(118, 118, 118, 0.2)" style="shape-rendering: crispedges;"></line><line x1="93.3086" y1="26" x2="280.7392" y2="26" stroke-width="2" stroke="#767676" style="shape-rendering: crispedges;"></line><path transform="translate(581, 21)" d="M0 0 L10 5 L0 10 z" fill="rgba(118, 118, 118, 0.2)" style="transition: fill 0.2s ease-in-out 0s;"></path><line x1="280.7392" y1="3.5" x2="280.7392" y2="48.5" stroke-width="2" stroke="#767676" style="opacity: 1; transition: opacity 0.5s ease-in-out 0s;"></line><g><g style="transform: translate(186.85px, 26px) scale(1); transition: transform 0.5s ease-in-out 0s;"><circle cx="0" cy="0" r="15" stroke-width="2" stroke="#767676" fill="#ffffff"></circle><text x="0" y="0" style="fill: rgb(118, 118, 118); dominant-baseline: central;">1:0</text></g><g style="transform: translate(279.926px, 26px) scale(1); transition: transform 0.5s ease-in-out 0s;"><circle cx="0" cy="0" r="15" stroke-width="2" stroke="#767676" fill="#ffffff"></circle><text x="0" y="0" style="fill: rgb(118, 118, 118); dominant-baseline: central;">1:1</text></g></g></g></g><g transform="translate(0, 167)"><g transform="translate(21, 0)"><line x1="139.7886" y1="26" x2="581" y2="26" stroke-width="2" stroke="rgba(118, 118, 118, 0.2)" style="shape-rendering: crispedges;"></line><line x1="139.7886" y1="26" x2="422.968" y2="26" stroke-width="2" stroke="#767676" style="shape-rendering: crispedges;"></line><path transform="translate(581, 21)" d="M0 0 L10 5 L0 10 z" fill="rgba(118, 118, 118, 0.2)" style="transition: fill 0.2s ease-in-out 0s;"></path><line x1="422.96799999999996" y1="3.5" x2="422.96799999999996" y2="48.5" stroke-width="2" stroke="#767676" style="opacity: 1; transition: opacity 0.5s ease-in-out 0s;"></line><g><g style="transform: translate(282.715px, 26px) scale(1); transition: transform 0.5s ease-in-out 0s;"><circle cx="0" cy="0" r="15" stroke-width="2" stroke="#767676" fill="#ffffff"></circle><text x="0" y="0" style="fill: rgb(118, 118, 118); dominant-baseline: central;">2:0</text></g><g style="transform: translate(422.271px, 26px) scale(1); transition: transform 0.5s ease-in-out 0s;"><circle cx="0" cy="0" r="15" stroke-width="2" stroke="#767676" fill="#ffffff"></circle><text x="0" y="0" style="fill: rgb(118, 118, 118); dominant-baseline: central;">2:1</text></g></g></g></g><g style="text-anchor: start; dominant-baseline: text-before-edge;"></g></svg>